<?xml version="1.0" standalone="no"?>
<!DOCTYPE svg PUBLIC "-//W3C//DTD SVG 20010904//EN"
 "http://www.w3.org/TR/2001/REC-SVG-20010904/DTD/svg10.dtd">
<svg version="1.0" xmlns="http://www.w3.org/2000/svg"
 width="1163.000000pt" height="933.000000pt" viewBox="0 0 1163.000000 933.000000"
 preserveAspectRatio="xMidYMid meet">

<g transform="translate(0.000000,933.000000) scale(0.100000,-0.100000)"
fill="#000000" stroke="none">
<path d="M5475 9059 c-1644 -116 -3105 -1059 -3827 -2469 -617 -1204 -623
-2611 -19 -3820 345 -689 847 -1260 1496 -1699 1066 -722 2394 -983 3670 -721
1691 347 3045 1573 3494 3161 471 1664 -114 3427 -1505 4535 -912 727 -2121
1097 -3309 1013z m470 -578 c30 -12 -58 -23 -114 -15 -40 7 -43 8 -21 15 33 9
110 9 135 0z m-356 -52 c-17 -11 -75 -11 -109 -2 -22 7 -21 8 15 13 55 7 111
0 94 -11z m-224 -29 c8 -13 -39 -24 -70 -16 -37 9 -21 26 25 26 21 0 42 -4 45
-10z m-195 -36 c0 -3 -53 -30 -117 -60 -241 -112 -385 -188 -482 -253 -484
-323 -783 -784 -852 -1316 -11 -90 -43 -195 -59 -195 -13 0 -20 28 -20 77 0
91 52 300 135 546 46 136 81 247 77 247 -4 0 -41 -56 -81 -125 -84 -141 -110
-173 -86 -104 57 160 165 324 316 480 96 99 113 123 70 99 -33 -17 -25 2 21
48 34 34 48 42 78 42 30 0 46 8 78 39 47 46 74 93 66 114 -4 11 5 17 33 22 54
10 172 60 417 177 267 127 406 183 406 162z m1685 -48 c42 -18 64 -53 38 -63
-19 -7 -124 45 -131 65 -5 17 50 15 93 -2z m284 -182 c203 -134 317 -232 435
-373 142 -170 273 -398 331 -576 67 -205 115 -453 115 -592 0 -67 -4 -85 -21
-107 -12 -15 -25 -24 -30 -19 -4 4 -10 62 -14 128 -23 463 -89 687 -291 990
-129 193 -221 292 -344 372 -74 48 -310 238 -310 249 0 10 20 -1 129 -72z
m-2506 -841 c57 -61 71 -150 41 -267 -25 -96 -42 -204 -33 -217 9 -15 92 -6
199 21 346 88 452 -31 356 -402 -19 -73 -75 -266 -125 -429 -118 -391 -145
-515 -145 -684 -1 -109 2 -136 18 -168 40 -81 63 -61 140 120 162 383 378 810
526 1043 73 114 114 190 123 231 4 15 15 37 26 50 l20 24 15 -38 c9 -20 27
-96 39 -169 13 -72 28 -133 34 -135 7 -3 38 51 71 120 109 224 279 412 357
393 35 -9 83 -64 120 -138 32 -65 61 -172 88 -328 l12 -75 74 125 c155 265
258 407 379 522 85 81 151 121 217 132 88 14 180 -71 203 -189 34 -166 -8
-487 -120 -925 -101 -393 -129 -512 -123 -518 12 -12 75 60 420 479 61 74 159
185 219 247 157 162 253 232 389 280 66 24 86 26 227 26 100 0 195 -6 266 -17
218 -35 315 -28 499 33 49 16 106 31 125 32 30 3 35 0 38 -19 8 -53 -89 -102
-250 -127 -72 -11 -146 -13 -323 -9 -439 12 -501 10 -577 -20 -37 -14 -96 -45
-130 -68 -141 -96 -382 -357 -665 -721 -83 -107 -179 -220 -213 -251 -92 -85
-120 -76 -120 39 0 88 31 241 109 546 110 427 151 659 152 859 1 214 -58 298
-165 235 -196 -115 -606 -774 -700 -1125 -27 -99 -48 -141 -70 -141 -8 0 -17
11 -20 24 -7 28 2 150 16 216 5 25 11 146 15 270 7 286 -14 455 -62 503 -32
33 -72 21 -128 -36 -129 -133 -266 -449 -361 -835 -39 -157 -52 -190 -69 -173
-21 21 -27 132 -20 409 7 327 7 328 -74 210 -136 -198 -317 -550 -448 -870
-101 -245 -187 -378 -245 -378 -88 0 -139 124 -133 325 6 225 51 433 174 813
153 473 164 577 64 610 -90 31 -433 -37 -537 -106 -20 -13 -62 -61 -93 -107
-196 -292 -455 -362 -865 -236 -144 45 -212 55 -365 55 -213 -1 -353 -33 -571
-130 -145 -65 -181 -74 -191 -49 -9 24 21 47 144 112 199 105 397 153 634 153
152 0 253 -16 394 -60 244 -78 398 -78 547 2 115 61 248 243 248 338 0 20 -12
65 -27 101 -51 121 -33 279 45 398 61 92 133 117 185 64z m-1058 -494 c8 -25
-2 -69 -15 -69 -6 0 -10 20 -10 45 0 47 14 60 25 24z m109 -715 c-2 -35 -32
-87 -45 -78 -12 7 -11 71 2 95 16 31 44 19 43 -17z m4300 -155 c11 -56 6 -205
-9 -286 -59 -309 -351 -823 -619 -1089 -146 -145 -495 -361 -660 -409 -104
-30 -81 4 34 50 229 94 376 192 546 367 305 313 509 692 610 1133 31 135 59
237 71 258 9 16 21 5 27 -24z m-4254 -219 c57 -246 148 -461 285 -670 73 -113
165 -270 165 -284 0 -19 -43 21 -88 81 -103 141 -245 399 -318 581 -64 159
-112 374 -98 442 l7 35 13 -45 c6 -25 22 -88 34 -140z m940 -1321 c90 -47 133
-78 108 -79 -24 0 -193 88 -215 112 -18 20 -18 21 7 13 14 -4 59 -25 100 -46z
m278 -135 c79 -47 40 -62 -42 -16 -58 32 -75 59 -30 48 16 -4 48 -19 72 -32z
m252 -89 c52 -13 122 -34 155 -45 l60 -20 -60 5 c-116 12 -275 56 -275 76 0
13 15 11 120 -16z m1323 -60 c-1 -5 -9 -12 -18 -13 -26 -6 -66 7 -59 19 8 13
80 7 77 -6z m-839 -31 c24 -9 9 -24 -24 -24 -41 0 -65 10 -48 21 15 10 50 11
72 3z m581 -14 c-3 -5 -28 -10 -55 -10 -27 0 -52 5 -55 10 -4 6 17 10 55 10
38 0 59 -4 55 -10z m-3262 -1083 c20 -13 25 -27 31 -86 9 -90 43 -228 100
-408 78 -244 85 -344 28 -394 -33 -29 -89 -43 -157 -37 -56 4 -62 24 -67 209
-4 127 -8 162 -24 194 -10 21 -25 41 -32 43 -7 2 -29 -15 -50 -37 -21 -23 -41
-41 -44 -41 -4 0 -23 25 -42 55 -55 85 -94 85 -185 0 -69 -64 -91 -123 -103
-264 -12 -154 -33 -196 -77 -152 -15 15 -21 34 -21 69 0 71 21 146 125 456 65
192 95 297 95 328 0 56 15 70 84 80 92 12 313 3 339 -15z m782 12 c147 -17
218 -48 271 -120 13 -18 24 -47 24 -64 0 -40 -44 -107 -113 -172 -80 -76 -121
-93 -218 -94 -105 -1 -120 13 -48 45 30 13 61 31 68 40 32 38 20 212 -17 248
-22 22 -77 32 -101 18 -42 -22 -50 -122 -51 -604 l0 -249 -88 5 c-103 6 -148
25 -156 65 -4 25 -8 68 -21 288 -3 51 -14 429 -17 575 -1 30 4 31 195 29 105
-1 228 -5 272 -10z m888 0 c135 -11 211 -35 264 -82 66 -58 73 -111 24 -191
-27 -43 -118 -129 -162 -152 -38 -20 -182 -31 -246 -19 l-38 7 63 23 c74 27
98 46 111 89 43 142 1 255 -91 243 -51 -7 -103 -48 -120 -94 -14 -41 -16 -400
-3 -647 l6 -129 -90 5 c-115 7 -153 26 -162 83 -7 43 -16 200 -24 445 -3 85
-8 217 -11 293 l-5 137 183 0 c101 0 236 -5 301 -11z m1081 -12 c19 -13 24
-28 30 -84 8 -81 44 -228 92 -377 49 -153 74 -262 74 -328 0 -95 -54 -138
-176 -138 -35 0 -56 5 -65 16 -8 10 -15 70 -20 182 -8 176 -13 206 -37 235
-21 24 -29 22 -69 -23 -20 -22 -40 -40 -44 -40 -4 0 -21 23 -39 50 -18 28 -41
55 -52 61 -32 17 -75 0 -132 -52 -73 -67 -95 -120 -107 -266 -12 -155 -34
-198 -78 -154 -44 44 -27 127 100 506 61 180 93 291 97 332 6 74 16 85 86 95
88 12 314 2 340 -15z m1956 4 c54 -16 71 -33 77 -77 4 -30 1 -43 -11 -54 -18
-14 -19 -14 -111 38 -18 10 -59 18 -105 20 -85 3 -137 -15 -157 -58 -12 -25
-36 -190 -29 -197 2 -2 28 18 57 45 101 90 132 100 196 61 72 -45 91 -137 43
-214 -30 -48 -53 -45 -96 15 -45 62 -65 69 -113 37 -60 -40 -76 -84 -75 -207
1 -122 17 -211 44 -235 10 -9 37 -19 59 -22 68 -9 125 20 219 110 91 89 87 90
82 -23 -2 -71 -25 -110 -80 -137 -62 -30 -149 -40 -392 -42 l-208 -2 0 482 0
482 283 -6 c155 -3 298 -10 317 -16z m437 -18 c-3 -21 -9 -171 -13 -334 -6
-258 -5 -305 10 -372 9 -41 26 -87 37 -101 51 -65 189 -28 189 50 0 12 -16 41
-35 64 -58 69 -41 100 52 100 72 0 129 -33 185 -107 26 -35 49 -59 51 -55 2 4
12 30 21 58 16 50 58 100 103 123 12 6 42 11 68 11 61 0 68 -20 25 -65 -24
-24 -34 -45 -37 -79 -5 -40 -2 -48 25 -76 17 -16 41 -31 54 -31 84 -5 129 11
172 61 48 58 33 91 -91 210 -48 47 -142 131 -209 187 -134 113 -154 137 -154
187 0 46 68 131 131 163 60 31 201 47 353 40 151 -8 166 -16 166 -92 0 -30 -4
-55 -10 -55 -5 0 -25 11 -45 24 -55 37 -134 51 -203 34 -111 -26 -96 -66 94
-251 162 -159 225 -243 232 -317 13 -137 -107 -253 -292 -282 -96 -15 -163 -3
-278 47 -103 46 -138 48 -175 13 -16 -15 -45 -34 -65 -42 -52 -22 -229 -36
-455 -36 l-193 0 0 480 0 480 146 0 147 0 -6 -37z m-1396 3 c42 -7 86 -20 98
-27 31 -19 61 -80 61 -124 0 -50 -18 -80 -95 -155 -77 -76 -95 -105 -95 -157
1 -51 29 -112 99 -208 97 -134 125 -205 80 -205 -30 0 -132 54 -198 104 -94
72 -183 175 -229 263 -57 110 -55 163 8 163 86 0 143 49 143 124 0 84 -66 155
-151 163 -58 6 -95 -19 -113 -75 -16 -51 -23 -455 -10 -571 9 -84 14 -98 41
-126 16 -17 30 -36 30 -43 0 -39 -148 -65 -229 -40 -72 22 -79 40 -91 223 -6
88 -12 281 -13 430 l-2 270 30 7 c51 12 552 0 636 -16z"/>
<path d="M4527 7202 c-42 -43 -60 -106 -61 -209 -1 -74 2 -95 16 -109 14 -15
19 -15 33 -4 59 49 113 290 75 335 -18 22 -33 19 -63 -13z"/>
<path d="M2671 2841 c-45 -63 -97 -211 -74 -211 3 0 21 12 40 26 48 37 87 46
139 32 28 -8 47 -9 53 -3 13 14 -23 103 -60 148 -38 46 -69 49 -98 8z"/>
<path d="M5431 2849 c-42 -45 -110 -219 -86 -219 5 0 23 12 42 26 48 36 88 46
140 32 63 -15 70 -3 38 68 -29 66 -70 114 -96 114 -10 0 -27 -9 -38 -21z"/>
</g>
</svg>
