<?xml version="1.0" standalone="no"?>
<!DOCTYPE svg PUBLIC "-//W3C//DTD SVG 20010904//EN"
 "http://www.w3.org/TR/2001/REC-SVG-20010904/DTD/svg10.dtd">
<svg version="1.0" xmlns="http://www.w3.org/2000/svg"
 width="100.000000pt" height="100.000000pt" viewBox="0 0 100.000000 100.000000"
 preserveAspectRatio="xMidYMid meet">

<g transform="translate(0.000000,100.000000) scale(0.100000,-0.100000)"
fill="#000000" stroke="none">
<path d="M40 675 l0 -55 180 0 c200 0 208 3 145 58 -47 42 -90 52 -217 52
l-108 0 0 -55z"/>
<path d="M410 508 l0 -221 -54 74 c-47 64 -52 75 -38 84 28 17 82 73 82 84 0
8 -56 11 -179 11 l-180 0 -3 -135 -3 -135 68 0 69 0 -4 75 c-2 41 -1 75 2 75
3 0 25 -34 50 -75 l45 -75 138 0 137 0 0 117 c0 64 3 113 7 110 3 -4 25 -55
48 -114 l42 -108 53 0 53 0 41 107 c23 59 44 108 49 108 4 0 7 -49 7 -110 l0
-110 60 0 60 0 0 230 0 230 -77 0 -78 0 -55 -140 c-30 -77 -57 -140 -60 -140
-3 0 -30 63 -60 140 l-55 140 -82 0 -83 0 0 -222z"/>
</g>
</svg>
